<svg xmlns="http://www.w3.org/2000/svg" version="1.1" id="bf74eb85-3bd0-4779-9593-5289e512c59f"
 x="0" y="0" viewBox="0 0 29.5 29.1" xml:space="preserve">
 <style>.st02x3{fill:#00a19b}</style>
 <path class="st02x3" d="M14.9 16.6l12-13.8c.3-.3.8-.3 1.1 0 .3.3.3.8 0 1.1L15.4 18.2c-.3.3-.8.3-1.1 0l-4.6-5.5c-.3-.3-.4-.8-.1-1.1.3-.3.8-.4 1.1-.1l.1.1 4.1 5z"></path>
 <path class="st02x3" d="M14.9 16.6l1 .8 12-13.8-1-.8.9.9-.4-.3v.5c.1 0 .3-.1.4-.2l-.4-.3-.4.3c.1.1.2.1.4.2v-.5l-.4.3.4-.3h-.5c0 .1 0 .3.1.3l.4-.3L27 3c-.1.1-.1.2-.1.3h.5L27 3 14.5 17.4l1 .8-.9-.9.4.4v-.5c-.1 0-.3.1-.4.1l.4.4.4-.4c-.1-.1-.2-.1-.4-.1v.5l.4-.4-.9.9 1-.8-4.7-5.5-.4.4h.5c0-.1-.1-.3-.1-.4l-.4.4.4.4c.1-.1.1-.2.1-.4h-.5l.4.4-.4-.4v.5c.1 0 .3-.1.4-.1l-.4-.4-.4.3c.1.1.2.1.4.1v-.5l-.4.4.9-.9-1 .8 5 6.1 1-1.1-1-.9 1-.8-4.1-5v-.1c-.8-.7-2.1-.7-2.9.1-.8.8-.8 2.1 0 2.9l.9-.9-1 .8 4.6 5.5c.8.8 2.1.8 2.9 0L28.9 4.8l-1-.8.9.9c.8-.8.8-2.1 0-2.9-.8-.8-2.1-.8-2.9 0l-12 13.8 1 .8 1-.8-1 .8z"></path>
 <path class="st02x3" d="M14.5 27.6c-1.5 0-3-.3-4.4-.8-6.8-2.4-10.3-9.9-7.9-16.7C4.1 5 9 1.5 14.5 1.5c1.5 0 3 .3 4.4.8l.5.2c.3.2.5.5.7.8.2.4.2.9 0 1.3-.3.7-.9 1.1-1.6 1.1-.2 0-.5 0-.7-.1-1.1-.4-2.1-.6-3.2-.6-1.9 0-3.8.6-5.4 1.6-1.5 1-2.7 2.5-3.5 4.2-.4 1-.7 2.1-.7 3.2-.1 2.5.7 5 2.4 6.9 1.7 1.9 4.1 3 6.6 3.1h.5c5.1 0 9.3-4 9.5-9.1.1-.9.8-1.6 1.8-1.6s1.8.8 1.8 1.8c-.1 1.2-.3 2.5-.7 3.7-1.9 5.3-6.9 8.8-12.4 8.8z"></path>
 </svg>