<svg xmlns="http://www.w3.org/2000/svg" viewBox="0 0 396.25 1073.17">
<defs>
<style>.e9baf21d-8fd2-4b23-9f17-6f0426116982{fill:#1eb59a;}</style>
</defs>
<g id="ba95fd2b-f69d-46c7-8a0e-2a2473050aeb" data-name="Layer 2">
<g id="eeb0b347-dba6-4360-912e-88773f005319" data-name="Layer 1">
<polygon class="e9baf21d-8fd2-4b23-9f17-6f0426116982" points="57.03 8.68 52.95 12.86 61.1 12.86 57.03 8.68"/>
<polygon class="e9baf21d-8fd2-4b23-9f17-6f0426116982" points="57.03 4.14 60.93 0.14 53.12 0.14 57.03 4.14"/>
<polygon class="e9baf21d-8fd2-4b23-9f17-6f0426116982" points="39.51 8.79 35.54 12.86 43.47 12.86 39.51 8.79"/>
<polygon class="e9baf21d-8fd2-4b23-9f17-6f0426116982" points="39.51 4.03 43.3 0.14 35.71 0.14 39.51 4.03"/>
<polygon class="e9baf21d-8fd2-4b23-9f17-6f0426116982" points="74.55 4.25 78.56 0.14 70.53 0.14 74.55 4.25"/>
<polygon class="e9baf21d-8fd2-4b23-9f17-6f0426116982" points="92.07 8.46 87.78 12.86 96.37 12.86 92.07 8.46"/>
<polygon class="e9baf21d-8fd2-4b23-9f17-6f0426116982" points="74.55 8.57 70.36 12.86 78.74 12.86 74.55 8.57"/>
<polygon class="e9baf21d-8fd2-4b23-9f17-6f0426116982" points="109.6 4.48 113.83 0.14 105.36 0.14 109.6 4.48"/>
<polygon class="e9baf21d-8fd2-4b23-9f17-6f0426116982" points="92.07 4.37 96.2 0.14 87.95 0.14 92.07 4.37"/>
<polygon class="e9baf21d-8fd2-4b23-9f17-6f0426116982" points="172.13 0.14 169.84 0.14 163.72 6.41 170.01 12.86 171.95 12.86 178.25 6.41 172.13 0.14"/>
<polygon class="e9baf21d-8fd2-4b23-9f17-6f0426116982" points="136.86 0.14 135.01 0.14 128.89 6.41 135.19 12.86 136.69 12.86 142.98 6.41 136.86 0.14"/>
<polygon class="e9baf21d-8fd2-4b23-9f17-6f0426116982" points="154.49 0.14 152.43 0.14 146.3 6.41 152.6 12.86 154.32 12.86 160.61 6.41 154.49 0.14"/>
<polygon class="e9baf21d-8fd2-4b23-9f17-6f0426116982" points="189.76 0.14 187.25 0.14 181.13 6.41 187.42 12.86 189.59 12.86 195.88 6.41 189.76 0.14"/>
<polygon class="e9baf21d-8fd2-4b23-9f17-6f0426116982" points="119.22 0.14 117.6 0.14 111.48 6.41 117.77 12.86 119.05 12.86 125.35 6.41 119.22 0.14"/>
<polygon class="e9baf21d-8fd2-4b23-9f17-6f0426116982" points="48.69 0.14 47.95 0.14 41.83 6.41 48.13 12.86 48.52 12.86 54.81 6.41 48.69 0.14"/>
<polygon class="e9baf21d-8fd2-4b23-9f17-6f0426116982" points="66.32 0.14 65.36 0.14 59.24 6.41 65.54 12.86 66.15 12.86 72.44 6.41 66.32 0.14"/>
<polygon class="e9baf21d-8fd2-4b23-9f17-6f0426116982" points="83.96 0.14 82.78 0.14 76.66 6.41 82.95 12.86 83.78 12.86 90.08 6.41 83.96 0.14"/>
<polygon class="e9baf21d-8fd2-4b23-9f17-6f0426116982" points="101.59 0.14 100.19 0.14 94.07 6.41 100.36 12.86 101.42 12.86 107.71 6.41 101.59 0.14"/>
<polygon class="e9baf21d-8fd2-4b23-9f17-6f0426116982" points="179.69 4.94 184.37 0.14 175.01 0.14 179.69 4.94"/>
<polygon class="e9baf21d-8fd2-4b23-9f17-6f0426116982" points="21.98 8.91 18.13 12.86 25.84 12.86 21.98 8.91"/>
<polygon class="e9baf21d-8fd2-4b23-9f17-6f0426116982" points="197.21 5.05 202 0.14 192.42 0.14 197.21 5.05"/>
<polygon class="e9baf21d-8fd2-4b23-9f17-6f0426116982" points="109.6 8.34 105.19 12.86 114 12.86 109.6 8.34"/>
<polygon class="e9baf21d-8fd2-4b23-9f17-6f0426116982" points="209.83 0.14 214.73 5.16 219.63 0.14 209.83 0.14"/>
<polygon class="e9baf21d-8fd2-4b23-9f17-6f0426116982" points="214.73 7.66 209.66 12.86 219.81 12.86 214.73 7.66"/>
<path class="e9baf21d-8fd2-4b23-9f17-6f0426116982" d="M305.72.14H222.07L216,6.41l6.29,6.45h83.48a6.29,6.29,0,0,0,6.21-6.36h0A6.29,6.29,0,0,0,305.72.14Z"/>
<polygon class="e9baf21d-8fd2-4b23-9f17-6f0426116982" points="197.21 7.77 192.25 12.86 202.17 12.86 197.21 7.77"/>
<path class="e9baf21d-8fd2-4b23-9f17-6f0426116982" d="M13.25,12.86l6.29-6.45L13.42.14H6.21A6.29,6.29,0,0,0,0,6.5H0a6.29,6.29,0,0,0,6.21,6.36Z"/>
<polygon class="e9baf21d-8fd2-4b23-9f17-6f0426116982" points="204.66 0.14 198.54 6.41 204.83 12.86 207.22 12.86 213.51 6.41 207.39 0.14 204.66 0.14"/>
<polygon class="e9baf21d-8fd2-4b23-9f17-6f0426116982" points="21.98 3.92 25.66 0.14 18.3 0.14 21.98 3.92"/>
<polygon class="e9baf21d-8fd2-4b23-9f17-6f0426116982" points="144.64 4.71 149.1 0.14 140.18 0.14 144.64 4.71"/>
<polygon class="e9baf21d-8fd2-4b23-9f17-6f0426116982" points="127.12 8.23 122.6 12.86 131.64 12.86 127.12 8.23"/>
<polygon class="e9baf21d-8fd2-4b23-9f17-6f0426116982" points="144.64 8.11 140.01 12.86 149.27 12.86 144.64 8.11"/>
<polygon class="e9baf21d-8fd2-4b23-9f17-6f0426116982" points="127.12 4.6 131.47 0.14 122.77 0.14 127.12 4.6"/>
<polygon class="e9baf21d-8fd2-4b23-9f17-6f0426116982" points="162.16 8 157.42 12.86 166.91 12.86 162.16 8"/>
<polygon class="e9baf21d-8fd2-4b23-9f17-6f0426116982" points="30.88 12.86 37.18 6.41 31.06 0.14 30.54 0.14 24.42 6.41 30.71 12.86 30.88 12.86"/>
<polygon class="e9baf21d-8fd2-4b23-9f17-6f0426116982" points="162.16 4.82 166.73 0.14 157.6 0.14 162.16 4.82"/>
<polygon class="e9baf21d-8fd2-4b23-9f17-6f0426116982" points="179.69 7.89 174.84 12.86 184.54 12.86 179.69 7.89"/>
<path class="e9baf21d-8fd2-4b23-9f17-6f0426116982" d="M303.88,13h0a78.46,78.46,0,0,1,30.79,6.26,80.18,80.18,0,0,1,35,28.82,78.64,78.64,0,0,1,13.6,44.27V959.56a6.5,6.5,0,0,0,13,0V92.35A92.59,92.59,0,0,0,303.9,0h0a6.5,6.5,0,0,0,0,13Z"/>
<path class="e9baf21d-8fd2-4b23-9f17-6f0426116982" d="M302,1040.05h6.5a33.12,33.12,0,1,0-9.7,23.42,33,33,0,0,0,9.7-23.42h-13a19.91,19.91,0,0,1-1.58,7.83,20.24,20.24,0,0,1-7.29,8.86,20.16,20.16,0,0,1-19.07,1.85,20.11,20.11,0,0,1-3.41-35.22,20.16,20.16,0,0,1,19.07-1.85,20.21,20.21,0,0,1,8.85,7.29,20,20,0,0,1,3.43,11.24Z"/>
<path class="e9baf21d-8fd2-4b23-9f17-6f0426116982" d="M303.88,1048.13h0a92.59,92.59,0,0,0,92.35-92.34V913.2a6.5,6.5,0,0,0-13,0v42.59A78.5,78.5,0,0,1,377,986.58a80.18,80.18,0,0,1-28.82,35,78.71,78.71,0,0,1-44.27,13.59h0a6.5,6.5,0,0,0,0,13Z"/>
</g>
</g>
</svg>