<?xml version="1.0" encoding="UTF-8"?>
<svg xmlns="http://www.w3.org/2000/svg" id="fad33996-610f-4756-9d8f-b7aa6f599cbc" data-name="Layer 1" viewBox="0 0 114.59 31.55">
  <defs>
    <style>.b5b931f6-4dcc-4ae9-8c83-5c5c05bbe712,.b75275da-2546-4fa0-86cf-21fe45236225{fill:gray;}.b5b931f6-4dcc-4ae9-8c83-5c5c05bbe712{fill-rule:evenodd;}</style>
  </defs>
  <title>pnc</title>
  <path class="b5b931f6-4dcc-4ae9-8c83-5c5c05bbe712" d="M23.57,18H20a1.83,1.83,0,0,0-.22-1.47l-2-3.33L14.48,7.31a13.09,13.09,0,0,0-3.1-3.76c1.18.44,16.1,9.16,16.1,9.16C29.92,14.19,32.06,17.88,23.57,18ZM12.34,27.34c-2.44,1.4-6.8,1.4-2.59-6,.74-1.25,1.78-3.1,1.78-3.1a1.65,1.65,0,0,0,1.4.59H23.57a13.69,13.69,0,0,0,4.8-.81C27.41,18.77,12.34,27.34,12.34,27.34ZM7.24,6.94c0-2.8,2.22-6.57,6.5.74.74,1.33,1.78,3.11,1.78,3.11a1.77,1.77,0,0,0-1.19,1l-1.92,3.4L9,20.91a13.68,13.68,0,0,0-1.7,4.65C7.17,24.23,7.24,6.94,7.24,6.94ZM15.74,0A15.78,15.78,0,1,0,31.55,15.74,15.71,15.71,0,0,0,15.74,0Z"></path>
  <path class="b5b931f6-4dcc-4ae9-8c83-5c5c05bbe712" d="M43.22,28.37h4V17.29h2.14c5.62,0,13.08-.45,13.08-6.87s-7-7-12.63-7H38.57v.66c4,.45,4.65,1,4.65,3.33Zm4-21c0-2.22.22-2.51,4-2.51,4.14,0,6.65,1.84,6.65,5.54,0,4.8-4.29,5.46-8.64,5.46h-2Z"></path>
  <path class="b5b931f6-4dcc-4ae9-8c83-5c5c05bbe712" d="M66.72,7.83c0-3-.67-3.25-4.66-3.77V3.4h9.31L85.92,23.72H86V3.4h2.44v25H84.89L69.23,6.65h-.08V28.37H66.72Z"></path>
  <path class="b5b931f6-4dcc-4ae9-8c83-5c5c05bbe712" d="M114.59,27.71a29.88,29.88,0,0,1-8.72,1c-8.71,0-13.44-6.13-13.44-13.67,0-6.72,2.8-12,12.33-12,7,0,9.54,3,9.83,5.47h-4.51c-.22-1.19-1-3.77-5.61-3.77-5,0-7.54,3.69-7.54,9.38,0,5.25,1.33,13,11.53,13a24.5,24.5,0,0,0,6.13-1Z"></path>
  <path class="b75275da-2546-4fa0-86cf-21fe45236225" d="M28.46,29.77h.27c.28,0,.46-.15.46-.38S29,29,28.72,29a.72.72,0,0,0-.26,0Zm-.27-.93a2.64,2.64,0,0,1,.51,0,.8.8,0,0,1,.59.17.49.49,0,0,1,.17.38.53.53,0,0,1-.39.53h0a.5.5,0,0,1,.3.41,3.3,3.3,0,0,0,.16.56h-.28a3.51,3.51,0,0,1-.13-.49c-.06-.28-.17-.38-.41-.39h-.25v.88h-.27Z"></path>
  <path class="b75275da-2546-4fa0-86cf-21fe45236225" d="M27.35,29.84a1.45,1.45,0,1,0,1.45-1.45A1.45,1.45,0,0,0,27.35,29.84Zm-.26,0a1.71,1.71,0,1,1,1.71,1.71A1.71,1.71,0,0,1,27.09,29.84Z"></path>
</svg>
